<svg width="19" height="18" viewBox="0 0 19 18" fill="none" xmlns="http://www.w3.org/2000/svg">
<path d="M15.1336 1.35156C15.2643 1.35352 15.3918 1.39203 15.5017 1.46272C15.6117 1.53341 15.6996 1.63347 15.7556 1.75156C16.0376 2.25156 16.3286 2.73256 16.6106 3.22856C16.8436 3.63656 17.0766 4.05456 17.3196 4.46256C17.5726 4.89956 17.8246 5.33656 18.0776 5.76256C18.3006 6.15156 18.5346 6.53056 18.7386 6.92856C18.7967 7.04187 18.8195 7.17002 18.804 7.29643C18.7885 7.42284 18.7354 7.54168 18.6516 7.63756C18.3896 7.98756 18.1266 8.32756 17.8516 8.66756C17.5406 9.07556 17.2296 9.47356 16.9096 9.88156C16.5896 10.2896 16.2776 10.6876 15.9676 11.0956C15.9096 11.1736 15.8416 11.2416 15.7826 11.3286C15.6951 11.4213 15.5771 11.4792 15.4503 11.4917C15.3235 11.5042 15.1964 11.4704 15.0926 11.3966C14.8206 11.2316 14.5486 11.0756 14.2766 10.9206C14.0046 10.7656 13.7326 10.6096 13.4706 10.4546L12.7516 10.0366L11.9356 9.56056C11.6636 9.40556 11.3916 9.24956 11.1296 9.09456C10.8676 8.93956 10.5656 8.78356 10.3036 8.60856C10.2118 8.55054 10.1361 8.47024 10.0837 8.37513C10.0312 8.28001 10.0037 8.17318 10.0036 8.06456C9.99359 6.18923 9.99359 4.31423 10.0036 2.43956C10.0075 2.32042 10.0553 2.20691 10.1378 2.12089C10.2203 2.03486 10.3317 1.98239 10.4506 1.97356C10.6836 1.94456 10.9076 1.91556 11.1406 1.87356C11.3736 1.83156 11.5676 1.82456 11.7816 1.79556C11.9956 1.76656 12.2086 1.72756 12.4226 1.69556L12.9086 1.63756L13.5786 1.53756L14.0646 1.47956C14.2296 1.46056 14.4146 1.43056 14.5796 1.41156C14.7624 1.37725 14.9476 1.35719 15.1336 1.35156Z" fill="#808080"/>
<path d="M9.59989 5.24424V7.98424C9.60455 8.12988 9.56773 8.27385 9.49373 8.39937C9.41972 8.52489 9.31158 8.62681 9.18189 8.69324C8.67689 8.98424 8.17189 9.28624 7.66589 9.57724C7.13189 9.88824 6.58789 10.1892 6.05289 10.5002C5.54789 10.7912 5.03289 11.0832 4.53689 11.3842C4.46287 11.4361 4.37877 11.4718 4.29004 11.4891C4.20131 11.5063 4.10994 11.5046 4.02189 11.4842C3.92575 11.4557 3.84305 11.3936 3.78889 11.3092C3.52689 10.9792 3.27389 10.6392 3.01189 10.3092C2.70089 9.90924 2.38989 9.50324 2.07889 9.09524L0.990892 7.69524C0.883734 7.56853 0.816262 7.41306 0.796892 7.24824C0.795815 7.07528 0.846676 6.90598 0.942892 6.76224C1.09789 6.49024 1.25389 6.21824 1.41889 5.94624L1.89489 5.14024L2.36089 4.33424C2.54589 4.01324 2.72989 3.70224 2.91489 3.38224L3.38089 2.56624C3.55589 2.26624 3.73089 1.95424 3.90589 1.65324C3.98209 1.54752 4.08566 1.46456 4.20547 1.41329C4.32528 1.36202 4.4568 1.34437 4.58589 1.36224C4.75089 1.40124 4.91589 1.41124 5.08589 1.44024C5.25589 1.46924 5.44489 1.48924 5.61989 1.51824C5.77489 1.54724 5.93089 1.55724 6.09589 1.57624C6.26089 1.59524 6.44589 1.62524 6.62089 1.65424C6.79589 1.68324 6.95089 1.70324 7.12589 1.72224C7.33989 1.74124 7.55289 1.78024 7.76689 1.80924C7.93189 1.82824 8.09689 1.84824 8.27189 1.87724L8.92289 1.97724C9.02989 1.98724 9.13689 2.00624 9.24389 2.02624C9.34332 2.0532 9.43163 2.111 9.49614 2.19132C9.56065 2.27164 9.59802 2.37034 9.60289 2.47324C9.59989 3.37924 9.59989 4.31224 9.59989 5.24424Z" fill="#808080"/>
<path d="M9.79702 17.1082H6.77502C6.65137 17.0983 6.53248 17.0562 6.43019 16.986C6.3279 16.9158 6.24579 16.82 6.19202 16.7082C6.03702 16.3292 5.88102 15.9402 5.72602 15.5622C5.57102 15.1842 5.41502 14.8042 5.26002 14.4162C5.06002 13.9302 4.85202 13.4352 4.66002 12.9492C4.56104 12.7306 4.47358 12.507 4.39802 12.2792C4.38197 12.1856 4.39216 12.0893 4.42746 12.001C4.46276 11.9128 4.52179 11.836 4.59802 11.7792L6.16202 10.8792C6.64802 10.5972 7.12402 10.3162 7.61002 10.0342C8.05702 9.78124 8.50402 9.52924 8.94102 9.26624C9.10602 9.16624 9.27102 9.07225 9.44102 8.98425C9.57051 8.91783 9.71544 8.88734 9.86071 8.89596C10.006 8.90458 10.1463 8.95198 10.267 9.03324C10.5 9.17924 10.743 9.30524 10.986 9.45124L11.802 9.92724L12.602 10.3932L13.564 10.9472L14.39 11.4232C14.604 11.5402 14.808 11.6662 15.022 11.7822C15.1135 11.8471 15.1804 11.9409 15.2122 12.0484C15.2439 12.156 15.2386 12.2711 15.197 12.3752L14.468 14.1822C14.254 14.7072 14.031 15.2312 13.817 15.7562C13.681 16.0962 13.555 16.4462 13.39 16.7662C13.3434 16.8677 13.2679 16.9532 13.1729 17.0119C13.0779 17.0706 12.9676 17.0999 12.856 17.0962C11.827 17.1082 10.807 17.1082 9.79702 17.1082Z" fill="#808080"/>
<path d="M5.68872 16.5665C5.68872 16.6835 5.64972 16.7215 5.54272 16.6735C5.4044 16.6119 5.27072 16.5404 5.14272 16.4595C4.91972 16.3335 4.68572 16.2065 4.47272 16.0705C4.20955 15.8935 3.99555 15.6527 3.85072 15.3705C3.69572 15.0885 3.52972 14.8165 3.37472 14.5445C3.21972 14.2725 3.06372 13.9905 2.89872 13.7185C2.63672 13.2615 2.37372 12.8185 2.11172 12.3585C1.87872 11.9585 1.65472 11.5585 1.42172 11.1585C1.20772 10.7795 0.974719 10.4205 0.789719 10.0315C0.695566 9.83938 0.643409 9.6294 0.636719 9.41553L0.636719 8.23953C0.636719 8.17153 0.646719 8.10353 0.714719 8.08453C0.74692 8.07871 0.780134 8.08311 0.809717 8.0971C0.8393 8.11108 0.863774 8.13396 0.879719 8.16253C1.11272 8.46253 1.33672 8.76253 1.56972 9.06253C1.86972 9.45153 2.16972 9.83053 2.46372 10.2085L3.25072 11.2285C3.40572 11.4225 3.57172 11.6285 3.71672 11.8285C3.90049 12.1216 4.05044 12.4346 4.16372 12.7615C4.30972 13.1115 4.45472 13.4615 4.59072 13.8105C4.75572 14.2105 4.91172 14.6165 5.07672 15.0245C5.20272 15.3355 5.33872 15.6465 5.46572 15.9665C5.53372 16.1215 5.60172 16.2875 5.65972 16.4425C5.67446 16.4592 5.68483 16.4792 5.68989 16.5009C5.69495 16.5225 5.69455 16.5451 5.68872 16.5665Z" fill="#808080"/>
<path d="M18.9595 8.87081V9.41481C18.9489 9.71066 18.8617 9.99869 18.7065 10.2508C18.5705 10.4938 18.4245 10.7268 18.2885 10.9698C18.1335 11.2418 17.9775 11.5138 17.8125 11.7858C17.6475 12.0578 17.5015 12.3198 17.3465 12.5858L16.7925 13.5478C16.6275 13.8298 16.4715 14.1118 16.3065 14.3928C16.1415 14.6738 15.9955 14.9368 15.8305 15.2088C15.7514 15.3645 15.6605 15.514 15.5585 15.6558C15.4038 15.8599 15.2087 16.0301 14.9855 16.1558C14.6945 16.3108 14.4215 16.4858 14.1305 16.6558C14.0894 16.6821 14.043 16.6989 13.9945 16.7048C13.9835 16.7078 13.9719 16.7083 13.9606 16.7064C13.9492 16.7044 13.9385 16.7001 13.929 16.6936C13.9195 16.6872 13.9115 16.6788 13.9056 16.669C13.8996 16.6592 13.8959 16.6482 13.8945 16.6368V16.6058C13.9049 16.48 13.9414 16.3578 14.0015 16.2468L14.6425 14.6728C14.8565 14.1478 15.0795 13.6238 15.2935 13.0988C15.4105 12.8078 15.5165 12.5158 15.6435 12.2338C15.7893 11.9366 15.972 11.6591 16.1875 11.4078C16.3335 11.2328 16.4595 11.0578 16.5955 10.8828L17.1785 10.1248C17.4115 9.81381 17.6445 9.50281 17.8875 9.20181C18.1695 8.85181 18.4315 8.50181 18.7035 8.15281C18.7215 8.12676 18.7467 8.10647 18.776 8.0944C18.8053 8.08234 18.8374 8.07901 18.8685 8.08481C18.9265 8.10381 18.9265 8.17181 18.9265 8.22081C18.9518 8.43652 18.9628 8.65365 18.9595 8.87081Z" fill="#808080"/>
<path d="M9.79926 0.000123455H12.8893C13.2052 0.00644692 13.5138 0.0968847 13.7833 0.262123C14.0263 0.408123 14.2693 0.544123 14.5123 0.680123C14.5703 0.719123 14.6293 0.748123 14.6773 0.787123C14.7011 0.799652 14.7199 0.820024 14.7305 0.844801C14.741 0.869578 14.7427 0.897242 14.7353 0.923123C14.7253 0.981123 14.6573 1.00112 14.6183 1.01012C14.4633 1.03912 14.3183 1.04912 14.1613 1.06812C14.0043 1.08712 13.8313 1.11712 13.6613 1.14612C13.4913 1.17512 13.3403 1.18512 13.1753 1.20412C12.9613 1.23312 12.7383 1.27212 12.5243 1.30412C12.3593 1.32312 12.1943 1.35312 12.0193 1.37212C11.8443 1.39112 11.6793 1.42112 11.5143 1.44012C11.3493 1.45912 11.1933 1.47912 11.0283 1.50812C10.8053 1.53712 10.5713 1.57612 10.3483 1.60812C10.065 1.64687 9.7785 1.65658 9.49326 1.63712C9.21126 1.60812 8.92926 1.55912 8.64826 1.53012C8.38626 1.50112 8.13326 1.45212 7.87126 1.41312C7.65726 1.38412 7.43426 1.36412 7.21026 1.33512L6.41026 1.21812C6.19626 1.18912 5.97326 1.16912 5.74926 1.14012L4.92326 1.02312C4.88326 1.01012 4.81926 1.00012 4.80526 0.933123C4.80255 0.902729 4.80951 0.872255 4.82513 0.846041C4.84075 0.819827 4.86424 0.799209 4.89226 0.787123C5.21326 0.612123 5.50426 0.457123 5.78626 0.287123C5.98606 0.161992 6.20648 0.0732857 6.43726 0.0251235C6.51699 0.00725469 6.59856 -0.00113674 6.68026 0.000123455H9.79926Z" fill="#808080"/>
</svg>
